<svg width="41" height="36" viewBox="0 0 41 36" fill="none" xmlns="http://www.w3.org/2000/svg">
<path d="M2.20007 22.8545V26.5141C2.20007 28.7916 2.20007 29.9297 2.64332 30.7995C3.03319 31.5647 3.65486 32.1881 4.42007 32.5779C5.28911 33.0207 6.42735 33.0207 8.70046 33.0207H38.8005M2.20007 22.8545V2.52075M2.20007 22.8545L10.0353 16.3253L10.0418 16.32C11.4592 15.1388 12.1693 14.5471 12.9392 14.3068C13.8488 14.0227 14.8285 14.0676 15.7086 14.4328C16.4548 14.7423 17.1091 15.3966 18.4175 16.7051L18.4305 16.7181C19.7593 18.0469 20.4254 18.7132 21.1837 19.0219C22.0808 19.3875 23.0794 19.419 23.9988 19.114C24.7784 18.8553 25.4903 18.2333 26.9138 16.9879L38.8001 6.58742" stroke="#BFC8D9" stroke-width="4.06667" stroke-linecap="round" stroke-linejoin="round"/>
</svg>
